<svg xmlns="http://www.w3.org/2000/svg" fill="none" viewBox="0 0 129 30">
  <path fill="#000"
    d="M10.436 29.919C4.688 30 0 25.23 0 19.443 0 13.696 4.688 8.967 10.436 9.008c3.67 0 7.053 1.671 8.887 5.258l-3.343 1.875c-1.182-2.16-3.18-3.301-5.544-3.301-3.506 0-6.4 2.975-6.4 6.603 0 3.668 2.894 6.685 6.4 6.685 2.365 0 4.362-1.142 5.544-3.302l3.343 1.834c-1.834 3.628-5.218 5.259-8.887 5.259zM32.203 29.96c-5.789 0-10.028-4.729-10.028-10.517 0-5.707 4.565-10.435 10.64-10.435 6.033 0 10.64 4.484 10.64 10.435V29.47h-3.832v-3.505c-1.509 2.445-4.159 3.994-7.42 3.994zm.611-3.832c3.751 0 6.605-3.017 6.605-6.644 0-3.669-2.854-6.685-6.604-6.685-3.71 0-6.605 3.016-6.605 6.685 0 3.627 2.895 6.644 6.605 6.644zM58.327 30c-4.974 0-7.624-3.139-7.624-7.704v-9.293H46.75V9.497h3.954V4.321h4.036v5.176h7.664v3.506H54.74v9.17c0 2.61 1.55 4.159 3.954 4.159 1.305 0 2.732-.49 3.71-1.183v3.71C61.384 29.552 59.794 30 58.327 30zM75.177 29.47h-4.036V13.003h-3.79V9.497h3.79V7.418C71.141 3.18 73.791 0 78.805 0c1.346 0 2.61.245 3.629.734v3.831c-.938-.57-2.12-.897-3.262-.897-2.486 0-3.995 1.101-3.995 3.75v2.08h7.012v3.505h-7.012V29.47zM87.752.326h4.036V29.47h-4.036V.326zM100.391 5.543a2.644 2.644 0 01-2.65-2.649c0-1.467 1.182-2.69 2.65-2.69S103 1.427 103 2.894c0 1.467-1.141 2.65-2.609 2.65zm-1.998 3.954h4.036V29.47h-4.036V9.497z" />
  <path fill="url(#a)"
    d="M125.588 10l3.41 3.41-6.716 6.715L129 26.843 125.844 30l-6.719-6.718-6.716 6.715L109 26.588l6.716-6.716-6.685-6.685 3.156-3.156 6.685 6.685L125.588 10z" />
  <defs>
    <linearGradient id="a" x1="105.031" x2="127.02" y1="6.834" y2="28.823" gradientUnits="userSpaceOnUse">
      <stop stop-color="#1D4ED8" />
      <stop offset="1" stop-color="#22D3EE" />
    </linearGradient>
  </defs>
</svg>