<svg width="0" height="0">
  <symbol id="user" viewBox="0 0 24 24">
    <g fill="none" stroke="currentColor" stroke-linecap="round" stroke-linejoin="round" stroke-width="2">
      <path d="M19 21v-2a4 4 0 0 0-4-4H9a4 4 0 0 0-4 4v2" />
      <circle cx="12" cy="7" r="4" />
    </g>
  </symbol>
  <symbol id="movie" viewBox="0 0 40 40">
    <path fill="black"
      d="M6 15v3h8v-7H6zm-2-2v-2H2V9h2V7H2v6zm0 2H2v1a2 2 0 0 0 2 2zm14-2V7h-2v2h2v2h-2v2zm0 2h-2v3a2 2 0 0 0 2-2zm-4-8V2H6v7h8zm4-2V4a2 2 0 0 0-2-2v3zM4 5V2a2 2 0 0 0-2 2v1zm0-5h12a4 4 0 0 1 4 4v12a4 4 0 0 1-4 4H4a4 4 0 0 1-4-4V4a4 4 0 0 1 4-4" />
  </symbol>
</svg>